<svg width="414" height="388" viewBox="0 0 414 388" fill="none" xmlns="http://www.w3.org/2000/svg">
<g clip-path="url(#clip0_820_2862)">
<path d="M233.111 322.303L233.093 323.635L234.413 323.81L282.174 330.163L283.872 330.389V328.677V149.468V149.257L283.814 149.054L271.799 107.224L271.487 106.138H270.357H265.958L259.989 57.5106L257.006 57.5601L252.649 106.431H246.837H245.649L245.376 107.588L235.487 149.606L235.449 149.766L235.447 149.93L233.111 322.303Z" fill="url(#paint0_linear_820_2862)" stroke="white" stroke-width="3"/>
<path d="M122.043 199.853V201.021L123.177 201.307L153.952 209.065L155.857 209.545L155.818 207.581L154.413 136.061L154.402 135.499L154.024 135.082L148.617 129.127L138.42 74.9238L135.462 74.9835L127.515 129.173L122.406 135.112L122.043 135.534V136.091V199.853Z" fill="url(#paint1_linear_820_2862)" stroke="white" stroke-width="3"/>
<path d="M23.9214 170.644V171.814L25.0551 172.099L44.957 177.11L46.8618 177.59L46.823 175.626L45.9096 129.414L45.8985 128.854L45.5234 128.438L42.1348 124.684L35.573 89.81L32.6147 89.8695L27.496 124.728L24.2837 128.466L23.9214 128.887V129.443V170.644Z" fill="url(#paint2_linear_820_2862)" stroke="white" stroke-width="3"/>
<path d="M441.623 344.01L441.947 343.699L441.929 343.25L438.278 251.13L438.554 251.328L440.138 252.47V250.517V239.719V239.414L439.968 239.16L438.317 236.707L438.025 236.274L437.503 236.266L432.233 236.182L431.872 236.176L431.591 236.403L429.975 237.703L429.601 238.003V238.482V249.761L413.596 286.031L412.977 287.434H414.511H417.1L413.601 331.542L400.577 329.353L401.36 215.229L401.362 214.999L401.263 214.791L375.441 160.695L375.17 160.126H374.539H363.765L362.064 131.523L362.048 131.242L361.887 131.011L359.199 127.153L359.08 126.983L358.904 126.874L357.34 125.909L356.75 125.545L356.202 125.971L300.457 169.289L295.085 168.646L294.596 168.587L294.251 168.94L249.265 215.005L247.375 216.941L250.07 216.7L254.345 216.318L251.947 310.579L248.133 312.753L248.008 312.824L247.908 312.928L222.865 338.921L218.077 326.861L214.479 146.219L214.469 145.679L214.011 145.392L187.347 128.639L187.057 128.457L186.716 128.491L95.252 137.528L94.3657 137.615L94.3505 138.506L94.0925 153.642L89.3616 160.126H78.0118V127.725V127.546L77.9502 127.379L74.7162 118.6L63.0505 46.8395L61.0734 46.8592L50.7236 119.623L47.4719 128.839L47.4107 129.012L47.4152 129.196L47.9998 152.839L38.3997 160.126H20.9761V133.994V133.771L20.8816 133.57L17.5319 126.422L5.55798 79.1491L3.60721 79.2026L-5.25035 124.462L-10.8462 134.47L-10.9658 134.684L-10.9729 134.929L-11.9917 170.113L-11.993 170.158L-11.9903 170.203L-10.0706 201.478L-45.4468 232.417L-45.5406 232.499L-45.6114 232.602L-88.8229 295.189L-89.9056 296.758H-88H-80.9788L-87.715 387.962L-87.7952 389.048L-86.7059 389.035L400.372 383.306L400.768 383.302L401.054 383.027L441.623 344.01ZM433.569 245.271L435.9 241.615L436.117 247.108L433.569 245.271Z" fill="white" stroke="url(#paint3_linear_820_2862)" stroke-width="2"/>
<path d="M187.37 362.028L187.403 365.804L189.97 363.034L218.18 332.589L218.592 332.145L218.58 331.54L214.979 146.209L214.963 145.399L214.277 144.968L187.612 128.215L185.29 126.756L185.315 129.499L187.37 362.028Z" fill="url(#paint4_linear_820_2862)" stroke="white" stroke-width="3"/>
<path d="M77.0122 159.626H75.5122V161.126V313.266V313.929L76.0025 314.375L93.1641 329.996L95.7635 332.362L95.6733 328.848L91.3698 161.088L91.3323 159.626H89.8703H77.0122Z" fill="url(#paint5_linear_820_2862)" stroke="white" stroke-width="3"/>
<path d="M50.5123 153.326V150.304L48.1054 152.131L37.8294 159.931L37.2383 160.38L37.2364 161.122L36.9202 282.88L39.8212 283.419L50.4133 255.721L50.5123 255.463V255.186V153.326Z" fill="url(#paint6_linear_820_2862)" stroke="white" stroke-width="3"/>
<path d="M375.892 160.48L373.039 161.126V379.859L375.877 380.535L400.908 330.989L401.067 330.675L401.07 330.323L401.86 215.233L401.862 214.888L401.714 214.576L375.892 160.48Z" fill="#F7F7F7" stroke="white" stroke-width="3"/>
<path d="M357.94 125.769L355.315 122.791V126.761V278.041L358.141 278.742L364.149 267.377L364.322 267.048V266.676V161.126V161.082L364.32 161.037L362.563 131.494L362.533 130.979L362.191 130.591L357.94 125.769Z" fill="#F7F7F7" stroke="white" stroke-width="3"/>
<path d="M295.145 168.149L293.467 167.948V169.639V386.757V388.021L294.713 388.235L299.227 389.011L300.971 389.31L300.981 387.541L302.246 170.339L302.254 169L300.924 168.841L295.145 168.149Z" fill="url(#paint7_linear_820_2862)" stroke="white" stroke-width="3"/>
<path d="M310.34 167.888L309.945 168.316L309.943 168.898L309.065 379.999L309.06 381.053L310.051 381.414L313.441 382.651L315.455 383.386V381.242V166.179V162.338L312.852 165.162L310.34 167.888Z" fill="url(#paint8_linear_820_2862)" stroke="white" stroke-width="3"/>
<path d="M320.946 160.198L320.555 160.625L320.553 161.204L319.675 372.304L319.67 373.356L320.658 373.719L324.031 374.956L326.047 375.695V373.547V158.484V154.623L323.441 157.472L320.946 160.198Z" fill="url(#paint9_linear_820_2862)" stroke="white" stroke-width="3"/>
<path d="M332.157 152.33L331.762 152.758L331.76 153.34L330.881 364.44L330.877 365.494L331.867 365.856L335.257 367.093L337.272 367.828V365.684V150.621V146.779L334.668 149.604L332.157 152.33Z" fill="url(#paint10_linear_820_2862)" stroke="white" stroke-width="3"/>
<path d="M343.434 144.279L343.039 144.707L343.037 145.289L342.159 356.389L342.154 357.443L343.145 357.805L346.535 359.042L348.549 359.777V357.632V142.569V138.728L345.946 141.553L343.434 144.279Z" fill="#F7F7F7" stroke="white" stroke-width="3"/>
<path d="M433 91H365C365.494 87.523 366.965 84.2703 369.231 81.6416C371.497 79.0129 374.461 77.1227 377.757 76.2034C381.054 75.2841 384.539 75.3757 387.786 76.467C391.032 77.5582 393.898 79.6016 396.031 82.3459C397.938 78.2591 401.138 74.96 405.106 72.9892C409.074 71.0184 413.575 70.4928 417.871 71.4985C422.167 72.5042 426.004 74.9816 428.753 78.5248C431.502 82.0679 432.999 86.4666 433 91Z" fill="#F1F3F5"/>
<path d="M53.2394 21.055H-20.4199C-19.8912 17.3866 -18.3001 13.9532 -15.8431 11.1784C-13.3861 8.40354 -10.1706 6.4086 -6.59319 5.43965C-3.01578 4.47071 0.767029 4.57014 4.28859 5.72569C7.81016 6.88123 10.9164 9.04234 13.2243 11.9424C15.2904 7.64042 18.7565 4.16774 23.0545 2.0934C27.3526 0.0190485 32.2278 -0.533952 36.8812 0.525017C41.5347 1.58399 45.6905 4.19212 48.6677 7.92207C51.6449 11.652 53.2669 16.2826 53.268 21.055H53.2394Z" fill="#F1F3F5"/>
</g>
<defs>
<linearGradient id="paint0_linear_820_2862" x1="258.491" y1="57.6934" x2="258.491" y2="328.677" gradientUnits="userSpaceOnUse">
<stop stop-color="#F9F9F9"/>
<stop offset="1" stop-color="#F7F7F7" stop-opacity="0"/>
</linearGradient>
<linearGradient id="paint1_linear_820_2862" x1="138.931" y1="75.2012" x2="138.931" y2="207.611" gradientUnits="userSpaceOnUse">
<stop stop-color="#F9F9F9"/>
<stop offset="1" stop-color="#F7F7F7" stop-opacity="0"/>
</linearGradient>
<linearGradient id="paint2_linear_820_2862" x1="35.3723" y1="90.0874" x2="35.3723" y2="175.656" gradientUnits="userSpaceOnUse">
<stop stop-color="#F9F9F9"/>
<stop offset="1" stop-color="#F7F7F7" stop-opacity="0"/>
</linearGradient>
<linearGradient id="paint3_linear_820_2862" x1="176.491" y1="47" x2="176.491" y2="388.035" gradientUnits="userSpaceOnUse">
<stop stop-color="#F8F9FA"/>
<stop offset="1" stop-color="#F8F9FA" stop-opacity="0"/>
</linearGradient>
<linearGradient id="paint4_linear_820_2862" x1="201.947" y1="129.485" x2="201.947" y2="362.014" gradientUnits="userSpaceOnUse">
<stop stop-color="#F7F7F7"/>
<stop offset="1" stop-color="#F7F7F7" stop-opacity="0.6"/>
</linearGradient>
<linearGradient id="paint5_linear_820_2862" x1="85.593" y1="161.126" x2="85.593" y2="328.887" gradientUnits="userSpaceOnUse">
<stop stop-color="#F7F7F7"/>
<stop offset="1" stop-color="#F7F7F7" stop-opacity="0.6"/>
</linearGradient>
<linearGradient id="paint6_linear_820_2862" x1="43.7162" y1="153.326" x2="43.7162" y2="282.883" gradientUnits="userSpaceOnUse">
<stop stop-color="#F7F7F7"/>
<stop offset="1" stop-color="#F7F7F7" stop-opacity="0.6"/>
</linearGradient>
<linearGradient id="paint7_linear_820_2862" x1="297.856" y1="169.639" x2="297.856" y2="387.532" gradientUnits="userSpaceOnUse">
<stop stop-color="#F7F7F7"/>
<stop offset="1" stop-color="#F7F7F7" stop-opacity="0.6"/>
</linearGradient>
<linearGradient id="paint8_linear_820_2862" x1="312.26" y1="166.179" x2="312.26" y2="381.242" gradientUnits="userSpaceOnUse">
<stop stop-color="#F9F9F9"/>
<stop offset="1" stop-color="#F7F7F7" stop-opacity="0"/>
</linearGradient>
<linearGradient id="paint9_linear_820_2862" x1="322.861" y1="158.484" x2="322.861" y2="373.547" gradientUnits="userSpaceOnUse">
<stop stop-color="#F9F9F9"/>
<stop offset="1" stop-color="#F7F7F7" stop-opacity="0"/>
</linearGradient>
<linearGradient id="paint10_linear_820_2862" x1="334.076" y1="150.621" x2="334.076" y2="365.684" gradientUnits="userSpaceOnUse">
<stop stop-color="#F9F9F9"/>
<stop offset="1" stop-color="#F7F7F7" stop-opacity="0"/>
</linearGradient>
<clipPath id="clip0_820_2862">
<rect width="414" height="388" fill="white"/>
</clipPath>
</defs>
</svg>
